HIERARCHY
ROOT SpineBase
{
  OFFSET 0.000000 0.000000 0.000000
  CHANNELS 6 Xposition Yposition Zposition Zrotation Xrotation Yrotation
  JOINT SpineMid
  {
    OFFSET 0.000000 26.128537 0.000000
    CHANNELS 3 Zrotation Xrotation Yrotation
    JOINT SpineShoulder
    {
      OFFSET -0.132009 19.665648 -0.448424
      CHANNELS 3 Zrotation Xrotation Yrotation
      JOINT Neck
      {
        OFFSET -0.077453 6.476092 -0.419553
        CHANNELS 3 Zrotation Xrotation Yrotation
        JOINT Head
        {
          OFFSET 2.811262 7.792467 6.694684
          CHANNELS 3 Zrotation Xrotation Yrotation
          End Site
          {
            OFFSET 0 0 0
          }
        }
      }
      JOINT ShoulderLeft
      {
        OFFSET -5.351925 -4.919344 -6.799750
        CHANNELS 3 Zrotation Xrotation Yrotation
        JOINT ElbowLeft
        {
          OFFSET -6.212052 -26.605686 5.789456
          CHANNELS 3 Zrotation Xrotation Yrotation
          JOINT WristLeft
          {
            OFFSET -0.120051 -17.464238 13.594496
            CHANNELS 3 Zrotation Xrotation Yrotation
            JOINT HandLeft
            {
              OFFSET -0.388434 -2.176727 -1.057593
              CHANNELS 3 Zrotation Xrotation Yrotation
              JOINT HandTipLeft
              {
                OFFSET 2.357368 0.698426 5.064729
                CHANNELS 3 Zrotation Xrotation Yrotation
                End Site
                {
                  OFFSET 0 0 0
                }
              }
              JOINT ThumbLeft
              {
                OFFSET -0.325524 -0.697750 -5.057233
                CHANNELS 3 Zrotation Xrotation Yrotation
                End Site
                {
                  OFFSET 0 0 0
                }
              }
            }
          }
        }
      }
      JOINT ShoulderRight
      {
        OFFSET 6.073037 -2.005091 -4.112690
        CHANNELS 3 Zrotation Xrotation Yrotation
        JOINT ElbowRight
        {
          OFFSET -16.334567 -21.041044 -0.842915
          CHANNELS 3 Zrotation Xrotation Yrotation
          JOINT WristRight
          {
            OFFSET -10.348285 -15.981113 7.233164
            CHANNELS 3 Zrotation Xrotation Yrotation
            JOINT HandRight
            {
              OFFSET 0.825304 -8.121664 5.372514
              CHANNELS 3 Zrotation Xrotation Yrotation
              JOINT HandTipRight
              {
                OFFSET 0.028216 -0.297318 -1.011275
                CHANNELS 3 Zrotation Xrotation Yrotation
                End Site
                {
                  OFFSET 0 0 0
                }
              }
              JOINT ThumbRight
              {
                OFFSET -0.161048 0.825972 -1.921939
                CHANNELS 3 Zrotation Xrotation Yrotation
                End Site
                {
                  OFFSET 0 0 0
                }
              }
            }
          }
        }
      }
    }
  }
  JOINT HipLeft
  {
    OFFSET -5.894405 1.032632 -4.395106
    CHANNELS 3 Zrotation Xrotation Yrotation
    JOINT KneeLeft
    {
      OFFSET 9.928673 -42.798836 1.926406
      CHANNELS 3 Zrotation Xrotation Yrotation
      JOINT AnkleLeft
      {
        OFFSET -1.140304 -29.815226 -0.540259
        CHANNELS 3 Zrotation Xrotation Yrotation
        JOINT FootLeft
        {
          OFFSET 1.760758 -2.111448 -10.951608
          CHANNELS 3 Zrotation Xrotation Yrotation
          End Site
          {
            OFFSET 0 0 0
          }
        }
      }
    }
  }
  JOINT HipRight
  {
    OFFSET 4.657588 0.898437 -1.224330
    CHANNELS 3 Zrotation Xrotation Yrotation
    JOINT KneeRight
    {
      OFFSET -4.315098 -38.182173 -2.250341
      CHANNELS 3 Zrotation Xrotation Yrotation
      JOINT AnkleRight
      {
        OFFSET 5.722258 -32.966492 0.222665
        CHANNELS 3 Zrotation Xrotation Yrotation
        JOINT FootRight
        {
          OFFSET -2.443048 -6.262305 -0.247984
          CHANNELS 3 Zrotation Xrotation Yrotation
          End Site
          {
            OFFSET 0 0 0
          }
        }
      }
    }
  }
}
MOTION
Frames: 9
Frame Time: 0.033333
71.619849 76.931749 307.946182 -0.000000 0.000000 -16.725036 0.000000 -0.000000 16.725036 -0.000000 0.000000 0.000000 -0.000000 0.000000 0.000000 0.000000 0.000000 0.000000 -0.000000 0.000000 0.000000 -0.000000 0.000000 0.000000 -0.000000 0.000000 0.000000 -0.000000 0.000000 0.000000 0.000000 0.000000 0.000000 0.000000 0.000000 0.000000 -0.000000 0.000000 0.000000 -0.000000 0.000000 0.000000 -0.000000 0.000000 0.000000 -0.000000 0.000000 0.000000 0.000000 0.000000 0.000000 0.000000 0.000000 0.000000 0.000000 -0.000000 16.725036 -0.000000 0.000000 0.000000 -0.000000 0.000000 0.000000 0.000000 0.000000 0.000000 0.000000 -0.000000 16.725036 -0.000000 0.000000 0.000000 -0.000000 0.000000 0.000000 0.000000 0.000000 0.000000
71.668209 76.988773 307.943118 0.005942 -0.021784 -16.054192 -0.011735 0.019291 16.054195 -0.000000 0.000000 0.000000 -0.000000 0.000000 0.000000 0.000000 0.000000 0.000000 0.162689 1.034456 -0.208082 -2.244500 -0.184842 -1.453441 6.787153 -12.334190 2.200107 -7.265016 17.017545 2.519440 0.000000 0.000000 0.000000 0.000000 0.000000 0.000000 -0.000000 0.000000 0.000000 -0.000000 0.000000 0.000000 -0.503369 -1.226998 -0.460006 -1.496812 3.065223 7.057465 0.000000 0.000000 0.000000 0.000000 0.000000 0.000000 -0.011735 0.019291 16.054195 0.781357 0.718185 -0.046530 -0.890999 -9.594582 -11.366801 0.000000 0.000000 0.000000 -0.011735 0.019291 16.054195 -0.000000 0.000000 0.000000 10.844543 30.845749 -16.080459 0.000000 0.000000 0.000000
71.696966 77.031142 307.952992 -0.021969 -0.060229 -15.512318 0.005061 0.063911 15.512304 -0.000000 0.000000 0.000000 1.025022 -0.176509 -0.819099 0.000000 0.000000 0.000000 0.280761 2.013370 -0.415807 -4.067686 -0.335813 -2.668281 13.053549 -22.076337 5.053031 -17.701378 35.071183 9.395645 0.000000 0.000000 0.000000 0.000000 0.000000 0.000000 -0.000000 0.000000 0.000000 -0.000000 0.000000 0.000000 -0.928512 -2.208272 -0.846440 -3.699837 5.501052 15.410013 0.000000 0.000000 0.000000 0.000000 0.000000 0.000000 0.005061 0.063911 15.512304 1.370786 1.313078 -0.090794 -5.474593 -23.612934 -29.856984 0.000000 0.000000 0.000000 0.005061 0.063911 15.512304 -0.000000 0.000000 0.000000 28.607939 48.748694 -36.444571 0.000000 0.000000 0.000000
71.706119 77.058856 307.975804 -0.084028 -0.115438 -15.095728 0.051064 0.133338 15.095584 -0.000000 0.000000 0.000000 1.510629 -0.250478 -1.212221 0.000000 0.000000 0.000000 0.338629 2.887813 -0.613035 -5.529936 -0.396473 -3.688062 18.600344 -29.231627 8.172909 -39.761565 53.536415 28.388341 0.000000 0.000000 0.000000 0.000000 0.000000 0.000000 -0.000000 0.000000 0.000000 -0.000000 0.000000 0.000000 -1.258745 -2.915394 -1.143046 -5.979447 6.710177 23.416849 0.000000 0.000000 0.000000 0.000000 0.000000 0.000000 0.051064 0.133338 15.095584 1.786628 1.800010 -0.129334 -17.684158 -37.151248 -55.506058 0.000000 0.000000 0.000000 0.051064 0.133338 15.095584 -0.000000 0.000000 0.000000 44.614255 55.145289 -53.543255 0.000000 0.000000 0.000000
71.695669 77.071914 308.011555 -0.180412 -0.187454 -14.802108 -0.274748 -0.571480 14.782362 0.047771 -0.260870 -0.029898 2.524354 0.616744 -1.586274 0.000000 0.000000 0.000000 0.862310 4.535354 -0.751071 -6.673331 -0.301255 -4.541720 23.311185 -34.300169 11.229120 -88.309641 61.720194 73.960188 0.000000 0.000000 0.000000 0.000000 0.000000 0.000000 0.543628 0.931099 0.041958 -0.000000 0.000000 0.000000 -1.480029 -3.325794 -1.336156 -7.388511 6.545942 28.797816 0.000000 0.000000 0.000000 0.000000 0.000000 0.000000 0.886564 -0.315139 14.662476 1.438864 2.912213 -0.041938 -33.312434 -43.708131 -79.813903 0.000000 0.000000 0.000000 0.126535 0.227324 14.801561 -0.000000 0.000000 0.000000 55.293814 56.979718 -64.619711 0.000000 0.000000 0.000000
71.665617 77.070317 308.060245 -0.311181 -0.276260 -14.630523 -0.304285 -0.667457 14.604247 0.045168 -0.297365 -0.039768 3.164298 0.773572 -1.966677 0.000000 0.000000 0.000000 0.939497 5.252590 -0.878859 -7.528571 0.017521 -5.247871 27.149113 -37.840277 14.012519 -125.691073 52.912314 108.596007 0.000000 0.000000 0.000000 0.000000 0.000000 0.000000 0.727979 1.143369 0.053604 -0.000000 0.000000 0.000000 -1.582126 -3.423449 -1.415843 -7.469782 5.368827 30.271719 0.000000 0.000000 0.000000 0.000000 0.000000 0.000000 1.176238 -0.213509 14.482120 1.361594 3.275440 -0.058676 -45.033743 -45.544887 -95.457522 0.000000 0.000000 0.000000 0.231316 0.345898 14.629075 -0.000000 0.000000 0.000000 61.587535 57.279963 -70.927775 0.000000 0.000000 0.000000
71.607533 77.064039 308.135553 -0.501921 -0.412245 -14.443322 -0.324513 -0.764022 14.408140 0.003172 -0.359327 -0.055113 3.967717 1.052856 -2.434524 0.000000 0.000000 0.000000 0.819633 5.756946 -0.976009 -8.598997 1.067964 -6.321339 31.804521 -39.111881 16.482021 -134.945193 47.012408 115.490874 0.000000 0.000000 0.000000 0.000000 0.000000 0.000000 1.001825 1.431928 0.069561 -0.000000 0.000000 0.000000 2.683234 -4.001983 1.425800 -10.974101 3.812811 27.724711 0.000000 0.000000 0.000000 0.000000 0.000000 0.000000 1.257206 0.139980 14.331746 1.216661 3.062786 -0.086208 -50.548939 -47.437082 -98.219149 0.000000 0.000000 0.000000 0.383252 0.524393 14.439762 -0.000000 0.000000 0.000000 63.239671 56.862951 -72.126437 0.000000 0.000000 0.000000
71.524713 77.031464 308.219381 -0.733105 -0.548187 -14.452703 -0.321396 -0.826351 14.407724 -0.035109 -0.384521 -0.069894 4.744614 1.252501 -2.870195 0.000000 0.000000 0.000000 0.843569 5.530191 -0.893882 -9.083643 3.079124 -6.851239 36.497217 -42.861134 20.171623 -144.926017 39.819331 123.001029 0.000000 0.000000 0.000000 0.000000 0.000000 0.000000 0.384851 1.642316 0.154632 0.897961 0.010411 -0.044408 6.324289 -4.119322 3.881047 -13.282048 2.938500 22.353647 0.000000 0.000000 0.000000 0.000000 0.000000 0.000000 1.910858 0.393400 14.338316 0.062273 3.446798 -0.074909 -46.031934 -50.694092 -85.624651 0.000000 0.000000 0.000000 0.573136 0.713770 14.445626 -0.000000 0.000000 0.000000 59.829851 55.853740 -67.732791 0.000000 0.000000 0.000000
71.451377 76.994289 308.310757 -0.949558 -0.666804 -14.584397 -0.287934 -0.836948 14.531272 -0.032536 -0.351458 -0.078131 5.237796 1.439561 -3.177903 0.000000 0.000000 0.000000 0.502679 5.489087 -0.930641 -8.147801 3.035877 -6.388822 30.973668 -42.488413 19.226066 -145.911809 44.545307 124.452935 0.000000 0.000000 0.000000 0.000000 0.000000 0.000000 0.472156 1.731426 0.183223 0.995887 0.024313 -0.059383 4.742145 -3.229220 2.877865 -10.380270 0.627158 18.387590 0.000000 0.000000 0.000000 0.000000 0.000000 0.000000 2.467426 0.607672 14.460453 -0.916614 3.818621 -0.058372 -47.383148 -51.801708 -86.306114 0.000000 0.000000 0.000000 0.751152 0.884343 14.573074 0.681796 -0.829536 -0.134306 60.997188 55.742377 -69.085727 0.000000 0.000000 0.000000
